<svg xmlns="http://www.w3.org/2000/svg" width="28" height="28" viewBox="0 0 28 28" fill="#FF9900">
    <path fill-rule="evenodd" clip-rule="evenodd" d="M25.0835 25.0881C24.2077 25.9617 22.7886 25.9617 21.9117 25.0881L13.9821 17.1584L6.05248 25.0881C5.17664 25.9617 3.75647 25.9617 2.88063 25.0881C2.00479 24.2033 2.00479 22.7921 2.88063 21.9073L10.8103 13.9776L2.88063 6.04806C2.00479 5.17446 2.00479 3.75197 2.88063 2.87837C3.75647 2.00477 5.17664 2.00477 6.05248 2.87837L13.9821 10.8081L21.9117 2.87837C22.7886 2.00477 24.2077 2.00477 25.0835 2.87837C25.9605 3.75197 25.9605 5.17446 25.0835 6.04806L17.1539 13.9776L25.0835 21.9073C25.9605 22.7921 25.9605 24.2033 25.0835 25.0881ZM20.3258 13.9776L26.6706 7.63837C28.4211 5.89117 28.4211 3.04647 26.6706 1.29927C24.9178 -0.459131 22.0775 -0.459131 20.3258 1.29927L13.9821 7.63837L7.63841 1.29927C5.88785 -0.459131 3.04753 -0.459131 1.29473 1.29927C-0.455828 3.04647 -0.455828 5.89117 1.29473 7.63837L7.63841 13.9776L1.29473 20.3281C-0.455828 22.0753 -0.455828 24.9201 1.29473 26.6673C3.04753 28.4257 5.88785 28.4257 7.63841 26.6673L13.9821 20.3281L20.3258 26.6673C22.0775 28.4257 24.9178 28.4257 26.6706 26.6673C28.4211 24.9201 28.4211 22.0753 26.6706 20.3281L20.3258 13.9776Z"/>
</svg>